# xmcd
#
# Track frame offsets:
#	150
#	4292
#	18601
#	30490
#	46424
#	64499
#	78393
#	92920
#	94787
#	109887
#	118501
#	130858
#	153053
#
# Disc length: 2168 seconds
#
# Revision: 0
# Processed by: cddbd v1.5.2PL0 Copyright (c) Steve Scherf et al.
# Submitted via: audiograbber 1.83.01
#
DISCID=a308760d
DTITLE=400 Milles - 400 Milles
DYEAR=1900
DGENRE=Country
TTITLE0=Intro (Eric Blanchard)
TTITLE1=Jamais Pour Rien (Eric Blanchard/Eric Doyon - Eric Blanchard/Eric Doyon
TTITLE1=)
TTITLE2=Louise (Eric Blanchard/Eric Doyon - 400 Milles)
TTITLE3=The Window (Marco Dorval - Eric Blanchard/Marco Dorval)
TTITLE4=Mille Après Mille (Gérald Joly - )
TTITLE5=Fallin Apart (Eric Blanchard/Eric Doyon - Eric Blanchard/Eric Doyon)
TTITLE6=L'exil (Eric Blanchard/Eric Doyon - Eric Blanchard)
TTITLE7=Cowboy Brésilien - Luan (Eric Blanchard/Sinom Pelletier/Marco Dorval/Er
TTITLE7=ic Doyon - Eric Blanchard/Eric Doyon)
TTITLE8=Washington DC (Eric Blanchard/Sinom Pelletier/Marco Dorval/Eric Doyon -
TTITLE8=Eric Blanchard/Eric Doyon)
TTITLE9=Smokin' Blue Grass (Eric Blanchard - Simon Pelletier)
TTITLE10=Come On (Marco Dorval - Eric Doyon/Eric Blanchard/Marco Dorval)
TTITLE11=Les Bactériens (Marco Dorval - Marco Dorval/Sylvain Savard)
TTITLE12=Leave With It (Marco Dorval)
EXTD=
EXTT0=
EXTT1=
EXTT2=
EXTT3=
EXTT4=
EXTT5=
EXTT6=
EXTT7=
EXTT8=
EXTT9=
EXTT10=
EXTT11=
EXTT12=
PLAYORDER=
